<svg version="1.1" id="Layer_1" xmlns="http://www.w3.org/2000/svg" xmlns:xlink="http://www.w3.org/1999/xlink" x="0px" y="0px"
	 width="100%" viewBox="0 0 439 557" enable-background="new 0 0 439 557" xml:space="preserve">
<path fill="#070A27" opacity="1.000000" stroke="none" 
	d="
M202.000000,1.000001 
	C214.687561,1.000000 227.375122,1.000000 240.692352,1.398944 
	C276.010620,4.349953 307.501434,16.181515 336.188721,34.438229 
	C338.536713,32.359917 340.733063,30.415850 343.430969,28.027845 
	C333.766815,22.453148 324.513702,17.115547 314.259186,11.200289 
	C350.533569,11.200289 385.562531,11.200289 420.633148,11.200289 
	C420.633148,46.549694 420.633148,81.697556 420.633148,118.156242 
	C414.709564,107.630287 409.424957,98.239738 403.991272,88.584297 
	C401.312988,91.244232 399.192169,93.350517 397.145935,95.382729 
	C416.966248,125.360489 428.297852,158.339066 430.763306,193.787186 
	C434.061310,241.205795 423.474731,285.635315 397.213898,325.217957 
	C399.597992,327.806274 401.514191,329.886597 403.862610,332.436188 
	C409.492065,322.494476 414.931488,312.888367 420.659729,302.772156 
	C420.659729,339.050446 420.659729,374.462891 420.659729,409.444458 
	C385.233063,409.444458 350.147827,409.444458 313.612061,409.444458 
	C319.747986,406.129913 324.573517,403.638153 329.284515,400.945984 
	C333.995209,398.253998 338.591370,395.361572 343.447021,392.430634 
	C340.973328,390.172302 338.923340,388.300781 336.939697,386.489838 
	C260.338440,431.671570 183.358612,431.781799 106.749168,386.817566 
	C104.625626,388.781982 102.485146,390.762054 100.175240,392.898865 
	C109.515953,398.292114 118.808807,403.657684 129.225311,409.672058 
	C92.543671,409.672058 57.347649,409.672058 22.364223,409.672058 
	C22.364223,374.042480 22.364223,338.741730 22.364223,302.858368 
	C28.182741,312.952454 33.659939,322.454437 38.957264,331.644348 
	C41.539921,329.363037 43.740616,327.419098 45.448174,325.910767 
	C0.269260,248.366974 0.205427,171.525360 45.417988,94.994499 
	C43.672184,93.092567 41.795391,91.047935 39.261574,88.287521 
	C33.726002,98.072586 28.357672,107.562019 22.309801,118.252663 
	C22.309801,81.644943 22.309801,46.480869 22.309801,11.430311 
	C57.623363,11.430311 92.752182,11.430311 128.852554,11.430311 
	C118.583427,17.261253 109.223740,22.575802 99.688385,27.990101 
	C102.315102,30.689623 104.397896,32.830143 105.564430,34.029011 
	C118.926880,27.518032 131.548721,20.719082 144.687531,15.136982 
	C159.706314,8.756168 175.486816,4.673300 191.805939,2.932960 
	C195.233688,2.567412 198.603500,1.658522 202.000000,1.000001 
M104.427635,123.058624 
	C98.724915,133.123291 92.486153,142.928101 87.450539,153.316147 
	C80.634552,167.376953 77.255135,182.617798 76.191765,198.119354 
	C75.504997,208.130814 76.435974,218.283142 77.053535,228.347076 
	C77.944038,242.858932 82.500610,256.516907 88.355492,269.638214 
	C98.654587,292.719360 114.176743,311.700256 134.394180,326.994751 
	C156.781754,343.930969 182.036545,353.428467 209.746872,355.803070 
	C225.273361,357.133545 240.884811,356.018188 256.201141,352.062561 
	C278.442932,346.318390 298.616943,336.487488 315.882050,321.420654 
	C328.255188,310.622955 339.329041,298.437561 347.509460,283.977692 
	C358.037659,265.367950 365.088257,245.484863 366.793549,224.160583 
	C367.645416,213.507401 366.668854,202.658066 365.923187,191.938919 
	C364.835754,176.306778 359.791473,161.679108 353.147125,147.614182 
	C347.448517,135.551132 339.884155,124.757988 331.245148,114.523903 
	C319.364777,100.449913 305.136810,89.470825 289.001556,81.120743 
	C265.295898,68.852951 240.087738,62.499859 213.152435,65.033630 
	C204.724045,65.826477 196.128128,66.182854 187.963318,68.184616 
	C161.861023,74.584122 139.053253,87.381561 119.657402,105.982948 
	C114.345634,111.077148 109.838806,117.010658 104.427635,123.058624 
z"/>
<path fill="#FFFFFF" opacity="1.000000" stroke="none" 
	d="
M201.531342,1.000001 
	C198.603500,1.658522 195.233688,2.567412 191.805939,2.932960 
	C175.486816,4.673300 159.706314,8.756168 144.687531,15.136982 
	C131.548721,20.719082 118.926880,27.518032 105.564430,34.029011 
	C104.397896,32.830143 102.315102,30.689623 99.688385,27.990101 
	C109.223740,22.575802 118.583427,17.261253 128.852554,11.430311 
	C92.752182,11.430311 57.623363,11.430311 22.309801,11.430311 
	C22.309801,46.480869 22.309801,81.644943 22.309801,118.252663 
	C28.357672,107.562019 33.726002,98.072586 39.261574,88.287521 
	C41.795391,91.047935 43.672184,93.092567 45.417988,94.994499 
	C0.205427,171.525360 0.269260,248.366974 45.448174,325.910767 
	C43.740616,327.419098 41.539921,329.363037 38.957264,331.644348 
	C33.659939,322.454437 28.182741,312.952454 22.364223,302.858368 
	C22.364223,338.741730 22.364223,374.042480 22.364223,409.672058 
	C57.347649,409.672058 92.543671,409.672058 129.225311,409.672058 
	C118.808807,403.657684 109.515953,398.292114 100.175240,392.898865 
	C102.485146,390.762054 104.625626,388.781982 106.749168,386.817566 
	C183.358612,431.781799 260.338440,431.671570 336.939697,386.489838 
	C338.923340,388.300781 340.973328,390.172302 343.447021,392.430634 
	C338.591370,395.361572 333.995209,398.253998 329.284515,400.945984 
	C324.573517,403.638153 319.747986,406.129913 313.612061,409.444458 
	C350.147827,409.444458 385.233063,409.444458 420.659729,409.444458 
	C420.659729,374.462891 420.659729,339.050446 420.659729,302.772156 
	C414.931488,312.888367 409.492065,322.494476 403.862610,332.436188 
	C401.514191,329.886597 399.597992,327.806274 397.213898,325.217957 
	C423.474731,285.635315 434.061310,241.205795 430.763306,193.787186 
	C428.297852,158.339066 416.966248,125.360489 397.145935,95.382729 
	C399.192169,93.350517 401.312988,91.244232 403.991272,88.584297 
	C409.424957,98.239738 414.709564,107.630287 420.633148,118.156242 
	C420.633148,81.697556 420.633148,46.549694 420.633148,11.200289 
	C385.562531,11.200289 350.533569,11.200289 314.259186,11.200289 
	C324.513702,17.115547 333.766815,22.453148 343.430969,28.027845 
	C340.733063,30.415850 338.536713,32.359917 336.188721,34.438229 
	C307.501434,16.181515 276.010620,4.349953 241.161011,1.398944 
	C307.318451,1.000000 373.636932,1.000000 439.977692,1.000000 
	C439.977692,186.610168 439.977692,372.220337 439.977692,557.915283 
	C293.756012,557.915283 147.511948,557.915283 1.133944,557.915283 
	C1.133944,372.333405 1.133944,186.666718 1.133944,1.000000 
	C67.758987,1.000000 134.410828,1.000000 201.531342,1.000001 
M194.499374,470.000000 
	C181.738571,470.000000 168.977768,470.000000 156.283264,470.000000 
	C156.283264,478.644196 156.283264,486.717346 156.283264,494.713745 
	C160.313126,494.713745 164.053741,494.713745 168.170837,494.713745 
	C168.170837,489.680847 168.170837,484.926331 168.170837,480.286285 
	C170.979279,480.286285 173.383499,480.286285 175.719513,480.286285 
	C175.719513,494.315796 175.719513,508.057251 175.719513,522.178833 
	C172.695724,522.178833 169.951019,522.178833 167.284851,522.178833 
	C167.284851,525.643616 167.284851,528.716919 167.284851,531.719177 
	C179.312561,531.719177 191.053345,531.719177 202.717926,531.719177 
	C202.717926,528.354126 202.717926,525.276306 202.717926,521.821777 
	C199.360428,521.821777 196.281830,521.821777 193.279907,521.821777 
	C193.279907,507.685120 193.279907,493.944000 193.279907,480.283295 
	C196.305969,480.283295 199.044922,480.283295 202.167297,480.283295 
	C202.167297,485.307709 202.167297,490.058929 202.167297,494.713623 
	C205.978882,494.713623 209.385223,494.713623 212.712738,494.713623 
	C212.712738,486.353241 212.712738,478.282166 212.712738,470.000000 
	C206.784897,470.000000 201.141830,470.000000 194.499374,470.000000 
M240.000000,481.437256 
	C240.000000,477.675507 240.000000,473.913727 240.000000,470.308167 
	C232.296875,470.308167 225.217911,470.308167 218.304855,470.308167 
	C218.304855,473.707001 218.304855,476.791138 218.304855,479.843536 
	C220.690933,479.984650 222.769897,480.107605 224.700989,480.221832 
	C224.700989,494.373779 224.700989,508.122070 224.700989,521.847168 
	C222.318222,521.984497 220.235916,522.104553 218.309082,522.215637 
	C218.309082,525.691772 218.309082,528.764771 218.309082,531.694214 
	C227.698502,531.694214 236.776154,531.694214 245.701645,531.694214 
	C245.701645,528.293945 245.701645,525.205933 245.701645,522.163147 
	C243.654648,522.013489 241.908630,521.885864 240.000000,521.746277 
	C240.000000,516.071106 239.993546,510.755280 240.002167,505.439423 
	C240.008499,501.533447 242.655914,498.670044 246.403564,499.074585 
	C250.245209,499.489258 250.029709,502.609100 250.015549,505.496887 
	C249.972565,514.261169 250.000000,523.025757 250.000000,532.000000 
	C253.881134,532.000000 257.191925,532.000000 260.502747,532.000000 
	C263.943146,532.000000 267.383514,532.000000 270.721802,532.000000 
	C270.721802,528.338074 270.721802,525.252197 270.721802,522.154541 
	C268.698364,522.020386 266.951385,521.904541 265.396545,521.801453 
	C265.170898,521.288696 265.051300,521.143372 265.050781,520.997681 
	C265.027222,514.665833 265.036499,508.333771 264.994659,502.002075 
	C264.935883,493.101868 259.880341,487.798492 251.202637,488.091949 
	C247.462936,488.218414 243.757263,489.350830 240.000000,490.032806 
	C240.000000,487.729675 240.000000,485.065063 240.000000,481.437256 
M405.000000,502.207336 
	C405.000000,491.598633 405.000000,480.989960 405.000000,470.199097 
	C397.857178,470.199097 391.121613,470.199097 384.194641,470.199097 
	C384.194641,473.471283 384.194641,476.544281 384.194641,479.992126 
	C386.443970,479.992126 388.525421,479.992126 390.653442,479.992126 
	C390.653442,494.226837 390.653442,508.083740 390.653442,522.133423 
	C388.347229,522.133423 386.389008,522.133423 384.350494,522.133423 
	C384.350494,525.530029 384.350494,528.716003 384.350494,531.663696 
	C393.110870,531.663696 401.518494,531.663696 409.837952,531.663696 
	C409.837952,528.364746 409.837952,525.403442 409.837952,522.238770 
	C408.182800,522.047058 406.640411,521.868408 405.358063,521.719849 
	C405.358063,518.003113 405.358063,514.668823 405.358063,510.582031 
	C408.264923,514.286926 410.799316,517.233826 413.021118,520.400085 
	C420.731598,531.388062 426.099426,533.891541 436.679596,531.365967 
	C436.679596,528.219421 436.679596,525.141541 436.679596,522.349854 
	C427.863403,522.000366 426.298218,513.570496 420.389526,509.231964 
	C425.808319,505.127380 430.843689,501.313232 435.879059,497.499084 
	C436.178558,497.866425 436.478027,498.233765 436.777527,498.601135 
	C436.777527,495.512695 436.777527,492.424286 436.777527,489.217560 
	C427.817017,489.217560 419.080139,489.217560 410.174316,489.217560 
	C410.174316,492.531982 410.174316,495.628693 410.174316,499.024933 
	C412.070160,499.024933 413.805084,499.024933 416.930908,499.024933 
	C412.494537,502.539001 409.067871,505.253296 405.000000,508.475494 
	C405.000000,506.019379 405.000000,504.570129 405.000000,502.207336 
M57.968807,474.451874 
	C51.497097,469.654480 44.058407,469.046478 36.305103,468.923981 
	C19.495794,468.658417 6.597598,482.495728 5.980608,498.978760 
	C5.277474,517.763123 18.200951,534.351929 39.846752,533.143127 
	C53.491932,532.381165 62.828491,526.168213 68.358353,514.091980 
	C75.030594,499.521057 68.708595,481.811096 57.968807,474.451874 
M359.000000,504.873138 
	C359.000000,513.814941 359.000000,522.756775 359.000000,531.756470 
	C366.229980,531.756470 372.971527,531.756470 379.761047,531.756470 
	C379.761047,528.425903 379.761047,525.343689 379.761047,521.899048 
	C377.781647,521.899048 376.039093,521.899048 374.494171,521.899048 
	C373.979767,513.808960 373.549072,506.096924 372.979584,498.395172 
	C372.569000,492.842651 368.100647,487.895020 363.181641,488.098419 
	C358.868408,488.276825 354.589081,489.292847 350.297241,489.954803 
	C349.574127,490.066284 348.846588,490.446320 348.149597,490.383911 
	C341.191772,489.760651 334.239899,489.070526 327.274902,488.398224 
	C327.274902,492.654938 327.274902,495.741241 327.274902,498.853241 
	C329.296844,498.979095 331.051208,499.088287 332.730408,499.192780 
	C332.730408,506.982269 332.730408,514.403809 332.730408,521.850464 
	C330.710632,521.978638 328.957947,522.089844 327.280548,522.196289 
	C327.280548,525.631836 327.280548,528.706360 327.280548,531.719849 
	C336.640717,531.719849 345.717651,531.719849 354.722595,531.719849 
	C354.722595,528.350525 354.722595,525.267883 354.722595,522.135559 
	C352.370758,522.018555 350.292450,521.915100 348.000427,521.801086 
	C348.000427,515.798584 347.992126,510.155060 348.002869,504.511597 
	C348.012604,499.405151 352.728424,500.494537 355.494659,499.261810 
	C355.886902,499.087097 357.794037,502.311829 359.000000,504.873138 
M302.659729,489.000031 
	C301.441650,489.120941 300.223541,489.241882 299.191345,489.344360 
	C299.191345,492.811310 299.191345,495.776733 299.191345,498.753326 
	C300.899658,498.957214 302.429840,499.139832 304.228668,499.354492 
	C301.929718,505.123779 299.804352,510.457397 297.418579,516.444580 
	C295.088135,510.402618 292.977905,504.931549 290.776398,499.223877 
	C292.735962,499.063507 294.296997,498.935760 295.694611,498.821381 
	C295.694611,495.314941 295.694611,492.242157 295.694611,489.292175 
	C286.649292,489.292175 277.912018,489.292175 269.248291,489.292175 
	C269.248291,492.691803 269.248291,495.793793 269.248291,498.895813 
	C269.553925,498.547546 269.859558,498.199310 270.165192,497.851044 
	C272.234833,499.183228 275.275391,500.035248 276.211395,501.928040 
	C281.104065,511.821869 285.559448,521.937744 289.959106,532.066711 
	C291.719940,536.120544 288.215759,540.947266 283.816742,540.998047 
	C282.688477,541.011108 281.559937,541.000000 280.344849,541.000000 
	C280.344849,544.511719 280.344849,547.703247 280.344849,550.893066 
	C285.667511,550.893066 290.644836,550.893066 295.936646,550.893066 
	C301.626801,536.302429 307.181366,521.639587 313.113647,507.131073 
	C314.678894,503.302948 314.523193,497.018768 321.754089,498.976013 
	C321.754089,495.444733 321.754089,492.367828 321.754089,489.000000 
	C315.550842,489.000000 309.588959,489.000000 302.659729,489.000031 
M123.307434,531.999756 
	C129.065582,530.933105 124.445312,526.787415 126.428200,523.965576 
	C123.181557,523.965576 120.765770,523.965576 118.000000,523.965576 
	C118.000000,517.965210 118.000000,512.339844 118.000000,506.714478 
	C118.000000,500.932434 118.000000,495.150421 118.000000,489.203613 
	C112.178162,489.203613 106.771889,489.203613 101.198029,489.203613 
	C101.198029,491.814545 101.198029,494.220398 101.198029,497.007111 
	C103.790024,497.007111 106.207123,497.007111 109.000000,497.007111 
	C109.000000,502.669403 108.577438,508.002625 109.115776,513.237061 
	C109.683395,518.756104 107.463425,521.360229 102.481277,523.242249 
	C95.217003,525.986450 92.018066,524.260559 92.003975,516.642456 
	C91.987129,507.536865 92.000000,498.431183 92.000000,489.224213 
	C86.796913,489.224213 82.055313,489.224213 77.219025,489.224213 
	C77.219025,491.864136 77.219025,494.274872 77.219025,497.050049 
	C79.176018,497.050049 80.918625,497.050049 83.000038,497.050049 
	C83.000038,505.541290 82.924271,513.668640 83.023438,521.793823 
	C83.106422,528.593079 87.671181,532.687622 94.390724,533.093750 
	C99.462112,533.400330 103.571266,531.607483 107.561432,528.955627 
	C107.942192,528.702515 108.387291,528.546204 108.843987,528.324951 
	C108.970520,529.571167 109.083588,530.684631 109.217148,532.000000 
	C113.701622,532.000000 118.021683,532.000000 123.307434,531.999756 
M142.999832,477.264771 
	C142.484726,476.866394 141.709793,476.012665 141.492661,476.136536 
	C136.619583,478.917023 132.627411,482.319855 134.037064,489.129425 
	C131.743027,489.129425 129.999588,489.129425 128.243759,489.129425 
	C128.243759,491.920715 128.243759,494.329285 128.243759,497.101807 
	C130.221161,497.101807 131.962570,497.101807 134.000031,497.101807 
	C134.000031,506.245819 133.912796,515.026672 134.026215,523.804932 
	C134.126099,531.535278 143.323898,536.683838 149.710571,532.620422 
	C150.388504,532.189087 150.863754,531.018921 150.940842,530.147949 
	C151.119827,528.125183 150.997818,526.075745 150.997818,523.562500 
	C146.973938,524.997803 143.296188,526.054810 143.086746,520.960693 
	C142.761612,513.053345 143.000870,505.122803 143.000870,497.151459 
	C145.950485,497.022339 148.365585,496.916626 150.742737,496.812561 
	C150.742737,494.056610 150.742737,491.651123 150.742737,488.876434 
	C148.082138,488.876434 145.675598,488.876434 143.000000,488.876434 
	C143.000000,485.040039 143.000000,481.576904 142.999832,477.264771 
z"/>
<path fill="#FFFFFF" opacity="1.000000" stroke="none" 
	d="
M104.695114,122.808823 
	C109.838806,117.010658 114.345634,111.077148 119.657402,105.982948 
	C139.053253,87.381561 161.861023,74.584122 187.963318,68.184616 
	C196.128128,66.182854 204.724045,65.826477 213.152435,65.033630 
	C240.087738,62.499859 265.295898,68.852951 289.001556,81.120743 
	C305.136810,89.470825 319.364777,100.449913 331.245148,114.523903 
	C339.884155,124.757988 347.448517,135.551132 353.147125,147.614182 
	C359.791473,161.679108 364.835754,176.306778 365.923187,191.938919 
	C366.668854,202.658066 367.645416,213.507401 366.793549,224.160583 
	C365.088257,245.484863 358.037659,265.367950 347.509460,283.977692 
	C339.329041,298.437561 328.255188,310.622955 315.882050,321.420654 
	C298.616943,336.487488 278.442932,346.318390 256.201141,352.062561 
	C240.884811,356.018188 225.273361,357.133545 209.746872,355.803070 
	C182.036545,353.428467 156.781754,343.930969 134.394180,326.994751 
	C114.176743,311.700256 98.654587,292.719360 88.355492,269.638214 
	C82.500610,256.516907 77.944038,242.858932 77.053535,228.347076 
	C76.435974,218.283142 75.504997,208.130814 76.191765,198.119354 
	C77.255135,182.617798 80.634552,167.376953 87.450539,153.316147 
	C92.486153,142.928101 98.724915,133.123291 104.695114,122.808823 
M312.669708,167.167984 
	C311.542969,166.482513 310.458862,165.711716 309.283203,165.124115 
	C284.355621,152.665070 259.383453,140.294312 234.525742,127.697670 
	C231.455276,126.141716 229.222641,126.339920 226.286163,127.822495 
	C201.260269,140.457565 176.149277,152.924026 151.080826,165.475037 
	C149.641373,166.195724 148.350723,167.213608 146.462631,168.156494 
	C146.409134,168.466187 146.355637,168.775879 146.166473,170.002930 
	C146.161560,196.303513 146.187119,222.604202 146.103027,248.904541 
	C146.094925,251.440308 146.616226,252.846512 149.160583,254.107086 
	C175.589935,267.201233 201.910233,280.515381 228.312592,293.664490 
	C229.477051,294.244385 231.403122,294.350677 232.533112,293.789307 
	C259.089508,280.595490 285.603149,267.314850 312.038147,253.879959 
	C313.353973,253.211243 314.666046,251.010696 314.673004,249.517319 
	C314.798523,222.719467 314.722198,195.920685 314.834625,168.461655 
	C314.219299,168.226868 313.603973,167.992065 312.669708,167.167984 
z"/>
<path fill="#000000" opacity="1.000000" stroke="none" 
	d="
M194.999069,470.000000 
	C201.141830,470.000000 206.784897,470.000000 212.712738,470.000000 
	C212.712738,478.282166 212.712738,486.353241 212.712738,494.713623 
	C209.385223,494.713623 205.978882,494.713623 202.167297,494.713623 
	C202.167297,490.058929 202.167297,485.307709 202.167297,480.283295 
	C199.044922,480.283295 196.305969,480.283295 193.279907,480.283295 
	C193.279907,493.944000 193.279907,507.685120 193.279907,521.821777 
	C196.281830,521.821777 199.360428,521.821777 202.717926,521.821777 
	C202.717926,525.276306 202.717926,528.354126 202.717926,531.719177 
	C191.053345,531.719177 179.312561,531.719177 167.284851,531.719177 
	C167.284851,528.716919 167.284851,525.643616 167.284851,522.178833 
	C169.951019,522.178833 172.695724,522.178833 175.719513,522.178833 
	C175.719513,508.057251 175.719513,494.315796 175.719513,480.286285 
	C173.383499,480.286285 170.979279,480.286285 168.170837,480.286285 
	C168.170837,484.926331 168.170837,489.680847 168.170837,494.713745 
	C164.053741,494.713745 160.313126,494.713745 156.283264,494.713745 
	C156.283264,486.717346 156.283264,478.644196 156.283264,470.000000 
	C168.977768,470.000000 181.738571,470.000000 194.999069,470.000000 
z"/>
<path fill="#000000" opacity="1.000000" stroke="none" 
	d="
M240.000000,481.918854 
	C240.000000,485.065063 240.000000,487.729675 240.000000,490.032806 
	C243.757263,489.350830 247.462936,488.218414 251.202637,488.091949 
	C259.880341,487.798492 264.935883,493.101868 264.994659,502.002075 
	C265.036499,508.333771 265.027222,514.665833 265.050781,520.997681 
	C265.051300,521.143372 265.170898,521.288696 265.396545,521.801453 
	C266.951385,521.904541 268.698364,522.020386 270.721802,522.154541 
	C270.721802,525.252197 270.721802,528.338074 270.721802,532.000000 
	C267.383514,532.000000 263.943146,532.000000 260.502747,532.000000 
	C257.191925,532.000000 253.881134,532.000000 250.000000,532.000000 
	C250.000000,523.025757 249.972565,514.261169 250.015549,505.496887 
	C250.029709,502.609100 250.245209,499.489258 246.403564,499.074585 
	C242.655914,498.670044 240.008499,501.533447 240.002167,505.439423 
	C239.993546,510.755280 240.000000,516.071106 240.000000,521.746277 
	C241.908630,521.885864 243.654648,522.013489 245.701645,522.163147 
	C245.701645,525.205933 245.701645,528.293945 245.701645,531.694214 
	C236.776154,531.694214 227.698502,531.694214 218.309082,531.694214 
	C218.309082,528.764771 218.309082,525.691772 218.309082,522.215637 
	C220.235916,522.104553 222.318222,521.984497 224.700989,521.847168 
	C224.700989,508.122070 224.700989,494.373779 224.700989,480.221832 
	C222.769897,480.107605 220.690933,479.984650 218.304855,479.843536 
	C218.304855,476.791138 218.304855,473.707001 218.304855,470.308167 
	C225.217911,470.308167 232.296875,470.308167 240.000000,470.308167 
	C240.000000,473.913727 240.000000,477.675507 240.000000,481.918854 
z"/>
<path fill="#000000" opacity="1.000000" stroke="none" 
	d="
M405.000000,502.664124 
	C405.000000,504.570129 405.000000,506.019379 405.000000,508.475494 
	C409.067871,505.253296 412.494537,502.539001 416.930908,499.024933 
	C413.805084,499.024933 412.070160,499.024933 410.174316,499.024933 
	C410.174316,495.628693 410.174316,492.531982 410.174316,489.217560 
	C419.080139,489.217560 427.817017,489.217560 436.777527,489.217560 
	C436.777527,492.424286 436.777527,495.512695 436.777527,498.601135 
	C436.478027,498.233765 436.178558,497.866425 435.879059,497.499084 
	C430.843689,501.313232 425.808319,505.127380 420.389526,509.231964 
	C426.298218,513.570496 427.863403,522.000366 436.679596,522.349854 
	C436.679596,525.141541 436.679596,528.219421 436.679596,531.365967 
	C426.099426,533.891541 420.731598,531.388062 413.021118,520.400085 
	C410.799316,517.233826 408.264923,514.286926 405.358063,510.582031 
	C405.358063,514.668823 405.358063,518.003113 405.358063,521.719849 
	C406.640411,521.868408 408.182800,522.047058 409.837952,522.238770 
	C409.837952,525.403442 409.837952,528.364746 409.837952,531.663696 
	C401.518494,531.663696 393.110870,531.663696 384.350494,531.663696 
	C384.350494,528.716003 384.350494,525.530029 384.350494,522.133423 
	C386.389008,522.133423 388.347229,522.133423 390.653442,522.133423 
	C390.653442,508.083740 390.653442,494.226837 390.653442,479.992126 
	C388.525421,479.992126 386.443970,479.992126 384.194641,479.992126 
	C384.194641,476.544281 384.194641,473.471283 384.194641,470.199097 
	C391.121613,470.199097 397.857178,470.199097 405.000000,470.199097 
	C405.000000,480.989960 405.000000,491.598633 405.000000,502.664124 
z"/>
<path fill="#000000" opacity="1.000000" stroke="none" 
	d="
M58.228912,474.721497 
	C68.708595,481.811096 75.030594,499.521057 68.358353,514.091980 
	C62.828491,526.168213 53.491932,532.381165 39.846752,533.143127 
	C18.200951,534.351929 5.277474,517.763123 5.980608,498.978760 
	C6.597598,482.495728 19.495794,468.658417 36.305103,468.923981 
	C44.058407,469.046478 51.497097,469.654480 58.228912,474.721497 
M17.397787,497.081787 
	C15.982833,503.668823 17.933510,509.808411 21.187820,515.172546 
	C25.367849,522.062683 33.381229,525.691406 41.130104,524.572998 
	C55.072323,522.560791 62.443932,506.912811 59.040943,494.254303 
	C56.429146,484.538849 46.205860,476.171204 37.128483,477.017395 
	C26.285439,478.028137 18.070955,487.603943 17.397787,497.081787 
z"/>
<path fill="#000000" opacity="1.000000" stroke="none" 
	d="
M359.000000,504.418152 
	C357.794037,502.311829 355.886902,499.087097 355.494659,499.261810 
	C352.728424,500.494537 348.012604,499.405151 348.002869,504.511597 
	C347.992126,510.155060 348.000427,515.798584 348.000427,521.801086 
	C350.292450,521.915100 352.370758,522.018555 354.722595,522.135559 
	C354.722595,525.267883 354.722595,528.350525 354.722595,531.719849 
	C345.717651,531.719849 336.640717,531.719849 327.280548,531.719849 
	C327.280548,528.706360 327.280548,525.631836 327.280548,522.196289 
	C328.957947,522.089844 330.710632,521.978638 332.730408,521.850464 
	C332.730408,514.403809 332.730408,506.982269 332.730408,499.192780 
	C331.051208,499.088287 329.296844,498.979095 327.274902,498.853241 
	C327.274902,495.741241 327.274902,492.654938 327.274902,488.398224 
	C334.239899,489.070526 341.191772,489.760651 348.149597,490.383911 
	C348.846588,490.446320 349.574127,490.066284 350.297241,489.954803 
	C354.589081,489.292847 358.868408,488.276825 363.181641,488.098419 
	C368.100647,487.895020 372.569000,492.842651 372.979584,498.395172 
	C373.549072,506.096924 373.979767,513.808960 374.494171,521.899048 
	C376.039093,521.899048 377.781647,521.899048 379.761047,521.899048 
	C379.761047,525.343689 379.761047,528.425903 379.761047,531.756470 
	C372.971527,531.756470 366.229980,531.756470 359.000000,531.756470 
	C359.000000,522.756775 359.000000,513.814941 359.000000,504.418152 
z"/>
<path fill="#000000" opacity="1.000000" stroke="none" 
	d="
M303.143402,489.000000 
	C309.588959,489.000000 315.550842,489.000000 321.754089,489.000000 
	C321.754089,492.367828 321.754089,495.444733 321.754089,498.976013 
	C314.523193,497.018768 314.678894,503.302948 313.113647,507.131073 
	C307.181366,521.639587 301.626801,536.302429 295.936646,550.893066 
	C290.644836,550.893066 285.667511,550.893066 280.344849,550.893066 
	C280.344849,547.703247 280.344849,544.511719 280.344849,541.000000 
	C281.559937,541.000000 282.688477,541.011108 283.816742,540.998047 
	C288.215759,540.947266 291.719940,536.120544 289.959106,532.066711 
	C285.559448,521.937744 281.104065,511.821869 276.211395,501.928040 
	C275.275391,500.035248 272.234833,499.183228 270.165192,497.851044 
	C269.859558,498.199310 269.553925,498.547546 269.248291,498.895813 
	C269.248291,495.793793 269.248291,492.691803 269.248291,489.292175 
	C277.912018,489.292175 286.649292,489.292175 295.694611,489.292175 
	C295.694611,492.242157 295.694611,495.314941 295.694611,498.821381 
	C294.296997,498.935760 292.735962,499.063507 290.776398,499.223877 
	C292.977905,504.931549 295.088135,510.402618 297.418579,516.444580 
	C299.804352,510.457397 301.929718,505.123779 304.228668,499.354492 
	C302.429840,499.139832 300.899658,498.957214 299.191345,498.753326 
	C299.191345,495.776733 299.191345,492.811310 299.191345,489.344360 
	C300.223541,489.241882 301.441650,489.120941 303.143402,489.000000 
z"/>
<path fill="#000000" opacity="1.000000" stroke="none" 
	d="
M122.824593,531.999878 
	C118.021683,532.000000 113.701622,532.000000 109.217148,532.000000 
	C109.083588,530.684631 108.970520,529.571167 108.843987,528.324951 
	C108.387291,528.546204 107.942192,528.702515 107.561432,528.955627 
	C103.571266,531.607483 99.462112,533.400330 94.390724,533.093750 
	C87.671181,532.687622 83.106422,528.593079 83.023438,521.793823 
	C82.924271,513.668640 83.000038,505.541290 83.000038,497.050049 
	C80.918625,497.050049 79.176018,497.050049 77.219025,497.050049 
	C77.219025,494.274872 77.219025,491.864136 77.219025,489.224213 
	C82.055313,489.224213 86.796913,489.224213 92.000000,489.224213 
	C92.000000,498.431183 91.987129,507.536865 92.003975,516.642456 
	C92.018066,524.260559 95.217003,525.986450 102.481277,523.242249 
	C107.463425,521.360229 109.683395,518.756104 109.115776,513.237061 
	C108.577438,508.002625 109.000000,502.669403 109.000000,497.007111 
	C106.207123,497.007111 103.790024,497.007111 101.198029,497.007111 
	C101.198029,494.220398 101.198029,491.814545 101.198029,489.203613 
	C106.771889,489.203613 112.178162,489.203613 118.000000,489.203613 
	C118.000000,495.150421 118.000000,500.932434 118.000000,506.714478 
	C118.000000,512.339844 118.000000,517.965210 118.000000,523.965576 
	C120.765770,523.965576 123.181557,523.965576 126.428200,523.965576 
	C124.445312,526.787415 129.065582,530.933105 122.824593,531.999878 
z"/>
<path fill="#000000" opacity="1.000000" stroke="none" 
	d="
M142.999908,477.689270 
	C143.000000,481.576904 143.000000,485.040039 143.000000,488.876434 
	C145.675598,488.876434 148.082138,488.876434 150.742737,488.876434 
	C150.742737,491.651123 150.742737,494.056610 150.742737,496.812561 
	C148.365585,496.916626 145.950485,497.022339 143.000870,497.151459 
	C143.000870,505.122803 142.761612,513.053345 143.086746,520.960693 
	C143.296188,526.054810 146.973938,524.997803 150.997818,523.562500 
	C150.997818,526.075745 151.119827,528.125183 150.940842,530.147949 
	C150.863754,531.018921 150.388504,532.189087 149.710571,532.620422 
	C143.323898,536.683838 134.126099,531.535278 134.026215,523.804932 
	C133.912796,515.026672 134.000031,506.245819 134.000031,497.101807 
	C131.962570,497.101807 130.221161,497.101807 128.243759,497.101807 
	C128.243759,494.329285 128.243759,491.920715 128.243759,489.129425 
	C129.999588,489.129425 131.743027,489.129425 134.037064,489.129425 
	C132.627411,482.319855 136.619583,478.917023 141.492661,476.136536 
	C141.709793,476.012665 142.484726,476.866394 142.999908,477.689270 
z"/>
<path fill="#070A27" opacity="1.000000" stroke="none" 
	d="
M314.689178,169.122101 
	C314.722198,195.920685 314.798523,222.719467 314.673004,249.517319 
	C314.666046,251.010696 313.353973,253.211243 312.038147,253.879959 
	C285.603149,267.314850 259.089508,280.595490 232.533112,293.789307 
	C231.403122,294.350677 229.477051,294.244385 228.312592,293.664490 
	C201.910233,280.515381 175.589935,267.201233 149.160583,254.107086 
	C146.616226,252.846512 146.094925,251.440308 146.103027,248.904541 
	C146.187119,222.604202 146.161560,196.303513 146.415009,169.576263 
	C146.663559,169.149612 146.999084,169.000717 147.364868,169.027618 
	C156.908401,173.700485 166.080429,178.357788 175.265198,182.989868 
	C190.864731,190.857071 206.489532,198.674408 222.066376,206.586212 
	C227.000412,209.092300 231.332520,210.046463 236.857849,206.877975 
	C248.094086,200.434586 259.881073,194.941696 271.506744,189.189865 
	C285.286652,182.372238 299.135742,175.694534 313.240967,169.020325 
	C313.914429,169.097000 314.301819,169.109543 314.689178,169.122101 
z"/>
<path fill="#B7B7B7" opacity="1.000000" stroke="none" 
	d="
M312.954865,168.956192 
	C299.135742,175.694534 285.286652,182.372238 271.506744,189.189865 
	C259.881073,194.941696 248.094086,200.434586 236.857849,206.877975 
	C231.332520,210.046463 227.000412,209.092300 222.066376,206.586212 
	C206.489532,198.674408 190.864731,190.857071 175.265198,182.989868 
	C166.080429,178.357788 156.908401,173.700485 147.350983,168.800842 
	C146.971329,168.547180 146.990845,168.093201 146.990845,168.093201 
	C148.350723,167.213608 149.641373,166.195724 151.080826,165.475037 
	C176.149277,152.924026 201.260269,140.457565 226.286163,127.822495 
	C229.222641,126.339920 231.455276,126.141716 234.525742,127.697670 
	C259.383453,140.294312 284.355621,152.665070 309.283203,165.124115 
	C310.458862,165.711716 311.542969,166.482513 312.875916,167.764313 
	C313.039703,168.559174 312.997284,168.757690 312.954865,168.956192 
z"/>
<path fill="#535465" opacity="1.000000" stroke="none" 
	d="
M313.240967,169.020325 
	C312.997284,168.757690 313.039703,168.559174 313.035400,168.058960 
	C313.603973,167.992065 314.219299,168.226868 314.761902,168.791870 
	C314.301819,169.109543 313.914429,169.097000 313.240967,169.020325 
z"/>
<path fill="#424457" opacity="1.000000" stroke="none" 
	d="
M146.726746,168.124847 
	C146.990845,168.093201 146.971329,168.547180 146.985199,168.773956 
	C146.999084,169.000717 146.663559,169.149612 146.482849,169.117584 
	C146.355637,168.775879 146.409134,168.466187 146.726746,168.124847 
z"/>
<path fill="#FFFFFF" opacity="1.000000" stroke="none" 
	d="
M17.673786,496.742279 
	C18.070955,487.603943 26.285439,478.028137 37.128483,477.017395 
	C46.205860,476.171204 56.429146,484.538849 59.040943,494.254303 
	C62.443932,506.912811 55.072323,522.560791 41.130104,524.572998 
	C33.381229,525.691406 25.367849,522.062683 21.187820,515.172546 
	C17.933510,509.808411 15.982833,503.668823 17.673786,496.742279 
z"/>
</svg>